<svg xmlns="http://www.w3.org/2000/svg" version="1.1" xmlns:xlink="http://www.w3.org/1999/xlink" xmlns:svgjs="http://svgjs.com/svgjs" width="1000" height="1000"><rect width="1000" height="1000" rx="250" ry="250" fill="#595959"></rect><g transform="matrix(1.9607843137254901,0,0,1.9607843137254901,218.80038511986828,200.1621883201833)"><svg xmlns="http://www.w3.org/2000/svg" version="1.1" xmlns:xlink="http://www.w3.org/1999/xlink" xmlns:svgjs="http://svgjs.com/svgjs" width="287" height="306"><svg width="287" height="306" viewBox="0 0 287 306" fill="none" xmlns="http://www.w3.org/2000/svg">
<path d="M11.7618 305.306C8.56725 305.306 5.80831 304.144 3.48498 301.821C1.16166 299.497 0 296.738 0 293.543V12.1187C0 8.92401 1.16166 6.16494 3.48498 3.84152C5.80831 1.5181 8.56725 0.356384 11.7618 0.356384H94.9658C98.1604 0.356384 100.919 1.5181 103.243 3.84152C105.566 6.16494 106.728 8.92401 106.728 12.1187V98.3758L155.953 9.94051C157.405 7.61708 159.486 5.43887 162.294 3.40588C165.053 1.37288 168.731 0.356384 173.378 0.356384H269.651C272.264 0.356384 274.491 1.32448 276.427 3.16385C278.315 5.05164 279.234 7.27825 279.234 9.94051C279.234 11.6831 278.799 13.2804 277.927 14.7326L199.515 146.296L285.333 290.929C286.204 292.091 286.64 293.689 286.64 295.722C286.64 298.335 285.672 300.61 283.833 302.498C281.945 304.386 279.718 305.306 277.056 305.306H177.734C171.926 305.306 167.618 303.95 164.908 301.143C162.149 298.384 160.454 296.448 159.874 295.286L106.728 200.316V293.543C106.728 296.738 105.566 299.497 103.243 301.821C100.919 304.144 98.1604 305.306 94.9658 305.306H11.7618Z" fill="#E7E7E3"></path>
</svg></svg></g></svg>