<svg width="24" height="24" viewBox="0 0 24 24" fill="none" xmlns="http://www.w3.org/2000/svg">
<path d="M21.2951 7.95714L21.2952 7.95723C21.4325 8.09388 21.5413 8.2564 21.6153 8.43538C21.6893 8.61435 21.7272 8.80624 21.7266 8.99993V9V19.1836C21.7261 19.6204 21.6371 20.0527 21.465 20.4542C21.2929 20.8557 21.0412 21.2182 20.7251 21.5198L20.7249 21.52C20.0966 22.1335 19.2532 22.4768 18.375 22.4766H5.625C3.80982 22.4766 2.27344 20.9402 2.27344 19.125V9C2.27344 8.60839 2.429 8.23282 2.70591 7.95591C2.98282 7.679 3.35839 7.52344 3.75 7.52344H6.75H6.77344V7.5V6.75C6.77344 5.36383 7.32409 4.03443 8.30426 3.05426C9.28443 2.07409 10.6138 1.52344 12 1.52344C13.3862 1.52344 14.7156 2.07409 15.6957 3.05426C16.6759 4.03443 17.2266 5.36383 17.2266 6.75V7.5V7.52344H17.25H20.25H20.2501C20.4443 7.52301 20.6366 7.56112 20.816 7.63557C20.9954 7.71002 21.1582 7.81932 21.2951 7.95714ZM15.75 7.52344H15.7734V7.5V6.75C15.7734 5.74922 15.3759 4.78943 14.6682 4.08178C13.9606 3.37412 13.0008 2.97656 12 2.97656C10.9992 2.97656 10.0394 3.37412 9.33178 4.08178C8.62412 4.78943 8.22656 5.74922 8.22656 6.75V7.5V7.52344H8.25H15.75ZM15.7289 14.9789C16.7178 13.9899 17.2734 12.6486 17.2734 11.25V10.5C17.2734 10.2949 17.192 10.0981 17.0469 9.9531C16.9019 9.80805 16.7051 9.72656 16.5 9.72656C16.2949 9.72656 16.0981 9.80805 15.9531 9.9531C15.808 10.0981 15.7266 10.2949 15.7266 10.5V11.25C15.7266 12.2383 15.3339 13.1862 14.6351 13.8851C13.9362 14.5839 12.9883 14.9766 12 14.9766C11.0117 14.9766 10.0638 14.5839 9.36492 13.8851C8.66606 13.1862 8.27344 12.2383 8.27344 11.25V10.5C8.27344 10.2949 8.19195 10.0981 8.0469 9.9531C7.90185 9.80805 7.70513 9.72656 7.5 9.72656C7.29487 9.72656 7.09815 9.80805 6.9531 9.9531C6.80805 10.0981 6.72656 10.2949 6.72656 10.5V11.25C6.72656 12.6486 7.28216 13.9899 8.27112 14.9789C9.26008 15.9678 10.6014 16.5234 12 16.5234C13.3986 16.5234 14.7399 15.9678 15.7289 14.9789Z" fill="#232321" stroke="#232321" stroke-width="0.046875"/>
</svg>
