<svg width="33" height="32" viewBox="0 0 33 32" fill="none" xmlns="http://www.w3.org/2000/svg">
<g id="logos:google-icon" clip-path="url(#clip0_245_3047)">
<path id="Vector" d="M32.318 16.2994C32.318 14.9884 32.2092 14.0317 31.9735 13.0396H16.652V18.9569H25.6454C25.4642 20.4274 24.485 22.642 22.3092 24.1301L22.2787 24.3282L27.123 27.9952L27.4587 28.0279C30.541 25.2463 32.318 21.1538 32.318 16.2994Z" fill="#4285F4"/>
<path id="Vector_2" d="M16.652 31.8901C21.058 31.8901 24.7569 30.4727 27.4587 28.0279L22.3092 24.1301C20.9312 25.0691 19.0817 25.7246 16.652 25.7246C12.3367 25.7246 8.67404 22.9432 7.36841 19.0986L7.17704 19.1145L2.13979 22.9236L2.07391 23.1025C4.75741 28.3112 10.2695 31.8901 16.652 31.8901Z" fill="#34A853"/>
<path id="Vector_3" d="M7.36844 19.0987C7.02394 18.1066 6.82456 17.0435 6.82456 15.9451C6.82456 14.8466 7.02394 13.7837 7.35031 12.7915L7.34119 12.5803L2.24081 8.70996L2.07394 8.78752C0.967938 10.949 0.333313 13.3762 0.333313 15.9451C0.333313 18.5141 0.967938 20.9412 2.07394 23.1026L7.36844 19.0987Z" fill="#FBBC05"/>
<path id="Vector_4" d="M16.652 6.16537C19.7163 6.16537 21.7833 7.45869 22.9619 8.53948L27.5674 4.14571C24.7389 1.57679 21.058 0 16.652 0C10.2695 0 4.75741 3.57875 2.07391 8.78742L7.35029 12.7915C8.67404 8.94693 12.3367 6.16537 16.652 6.16537Z" fill="#EB4335"/>
</g>
<defs>
<clipPath id="clip0_245_3047">
<rect width="32" height="32" fill="white" transform="translate(0.333313)"/>
</clipPath>
</defs>
</svg>
