<svg width="53" height="36" viewBox="0 0 53 36" fill="none" xmlns="http://www.w3.org/2000/svg">
<rect x="0.5" y="0.5" width="52" height="35" rx="7.5" fill="white"/>
<rect x="0.5" y="0.5" width="52" height="35" rx="7.5" stroke="black"/>
<path d="M35.8839 11.8052C35.2312 11.5413 34.1958 11.25 32.9156 11.25C29.6474 11.25 27.3459 13.0257 27.3318 15.5643C27.3047 17.4374 28.9796 18.4777 30.2323 19.1022C31.5127 19.7404 31.9479 20.1569 31.9479 20.7257C31.9349 21.5994 30.9133 22.0021 29.9605 22.0021C28.6392 22.0021 27.9312 21.7945 26.8553 21.3084L26.4195 21.1001L25.9564 24.0274C26.7326 24.3877 28.1627 24.7074 29.6474 24.7214C33.1199 24.7214 35.3806 22.9733 35.4074 20.2679C35.4206 18.7834 34.5362 17.6459 32.6295 16.7164C31.472 16.1197 30.7631 15.7174 30.7631 15.1069C30.7767 14.5519 31.3626 13.9834 32.6693 13.9834C33.7452 13.9555 34.5357 14.219 35.1345 14.4827L35.4338 14.6212L35.8839 11.8052Z" fill="#3362AB"/>
<path d="M23.8868 24.5271H20.5773L22.6473 11.4864H25.9566L23.8868 24.5271Z" fill="#3362AB"/>
<path fill-rule="evenodd" clip-rule="evenodd" d="M44.3676 11.4864H41.8077C41.0183 11.4864 40.4186 11.722 40.078 12.5684L35.1622 24.5269H38.6347C38.6347 24.5269 39.2064 22.9174 39.3293 22.5707H43.5784C43.6734 23.0286 43.9733 24.5269 43.9733 24.5269H47.0375L44.3676 11.4864ZM40.2825 19.9072C40.555 19.1581 41.6038 16.2585 41.6038 16.2585C41.5983 16.2697 41.6409 16.1492 41.7045 15.9696L41.7053 15.9674L41.7058 15.966C41.8008 15.6977 41.9418 15.2994 42.0392 15.0101L42.2705 16.1337C42.2705 16.1337 42.8972 19.2552 43.0333 19.9072H40.2825Z" fill="#3362AB"/>
<path d="M17.8131 11.4864L14.572 20.3789L14.2179 18.5754L14.2176 18.5743L13.0604 12.5826C12.8698 11.7497 12.2842 11.5139 11.5624 11.4864H6.23782L6.18335 11.7499C7.482 12.0882 8.64353 12.5758 9.66127 13.182L12.611 24.5133H16.1107L21.3126 11.4864H17.8131Z" fill="#3362AB"/>
</svg>
