<svg width="24" height="24" viewBox="0 0 24 24" fill="none" xmlns="http://www.w3.org/2000/svg">
<g id="ic:round-check">
<path id="Vector" d="M8.9999 16.1701L5.5299 12.7001C5.34292 12.5131 5.08933 12.4081 4.8249 12.4081C4.56048 12.4081 4.30688 12.5131 4.1199 12.7001C3.93292 12.8871 3.82788 13.1407 3.82788 13.4051C3.82788 13.536 3.85367 13.6657 3.90377 13.7866C3.95388 13.9076 4.02732 14.0175 4.1199 14.1101L8.2999 18.2901C8.6899 18.6801 9.3199 18.6801 9.7099 18.2901L20.2899 7.71008C20.4769 7.5231 20.5819 7.2695 20.5819 7.00508C20.5819 6.74065 20.4769 6.48706 20.2899 6.30008C20.1029 6.1131 19.8493 6.00806 19.5849 6.00806C19.3205 6.00806 19.0669 6.1131 18.8799 6.30008L8.9999 16.1701Z" fill="black"/>
</g>
</svg>
